<?xml version="1.0" encoding="UTF-8"?>
<!DOCTYPE svg  PUBLIC '-//W3C//DTD SVG 1.1//EN'  'http://www.w3.org/Graphics/SVG/1.1/DTD/svg11.dtd'>
<svg enable-background="new 0 0 860 230" version="1.1" viewBox="0 0 860 230" xml:space="preserve" xmlns="http://www.w3.org/2000/svg">
<rect x="-.5" y="-.5" width="860" height="229" fill="#E74C3C"/>
<g fill="#fff">
<path d="m89.617 96.903c2.674-2.046 10.541-8.338 22.497-8.338 21.081 0 32.25 15.26 32.25 41.688 0 29.576-15.417 46.724-45.622 46.724-17.305 0-32.722-3.461-32.722-3.461v-103.36l-11.799-3.146v-12.586l35.396-1.258v43.734zm0 59.938s3.618 1.259 11.642 1.259c13.687 0 18.721-10.383 18.721-26.272 0-15.73-4.405-24.384-15.417-24.384-9.439 0-14.945 7.079-14.945 7.079v42.318z"/>
<path d="m206.98 164.86s-12.113 11.799-25.485 11.799c-15.26 0-24.542-8.967-24.542-24.699 0-18.563 14.001-25.957 37.914-25.957h11.012v-8.652c0-8.023-4.248-11.484-12.114-11.484-8.023 0-13.844 2.359-13.844 2.359l-2.36 9.912h-14.159l-1.101-23.284s19.036-6.292 34.138-6.292c23.912 0 33.037 8.338 33.037 31.148v38.857l11.799 2.832v12.585l-31.464 1.102-2.831-10.226zm-10.069-25.485c-12.271 0-17.147 3.146-17.147 10.226 0 5.978 3.304 9.438 9.282 9.438 8.338 0 16.833-9.124 16.833-9.124v-10.54h-8.968z"/>
<path d="m280.13 157.78h22.968l2.674-13.372h14.159v30.677h-68.434v-14.474l39.959-53.173h-21.553l-2.359 11.484h-14.159v-28.788h66.074v14.63l-39.329 53.016z"/>
<path d="m359.58 157.78h22.968l2.674-13.372h14.159v30.677h-68.433v-14.474l39.958-53.173h-21.553l-2.359 11.484h-14.159v-28.788h66.073v14.63l-39.328 53.016z"/>
<path d="m460.42 164.86s-12.115 11.799-25.486 11.799c-15.26 0-24.542-8.967-24.542-24.699 0-18.563 14.001-25.957 37.913-25.957h11.014v-8.652c0-8.023-4.248-11.484-12.113-11.484-8.023 0-13.846 2.359-13.846 2.359l-2.359 9.912h-14.159l-1.101-23.284s19.035-6.292 34.138-6.292c23.912 0 33.037 8.338 33.037 31.148v38.857l11.799 2.832v12.585l-31.465 1.102-2.83-10.226zm-10.068-25.485c-12.271 0-17.148 3.146-17.148 10.226 0 5.978 3.303 9.438 9.281 9.438 8.338 0 16.834-9.124 16.834-9.124v-10.54h-8.967z"/>
<path d="m538.6 100.99s11.326-12.428 21.867-12.428c8.652 0 14.631 2.831 14.631 2.831l-1.26 30.205h-14.158l-2.359-13.372c-9.125 0-16.99 8.811-16.99 8.811v41.531l15.73 3.933v12.586h-51.914v-12.586l12.586-3.933v-51.128l-12.586-3.933v-12.585l33.037-0.786 1.416 10.854z"/>
<path d="m599.64 148.66c8.652 0 13.215 5.191 13.215 14.159 0 9.124-6.451 14.315-13.529 14.315-8.652 0-13.215-5.191-13.215-14.315-1e-3 -8.967 6.449-14.159 13.529-14.159z"/>
<path d="m662.41 99.263c4.562-3.775 14.787-10.697 26.43-10.697 16.047 0 24.699 10.697 24.699 28.317v41.688l11.012 3.933v12.586h-42.791v-12.586l8.182-3.775v-38.07c0-7.866-3.146-12.586-10.383-12.586-8.811 0-17.148 8.339-17.148 8.339v42.16l8.338 3.933v12.586h-44.521v-12.586l12.586-3.933v-88.413l-12.586-3.146v-12.586l36.184-1.258v46.094z"/>
<path d="m768.44 100.99s11.328-12.428 21.867-12.428c8.652 0 14.631 2.831 14.631 2.831l-1.258 30.205h-14.16l-2.359-13.372c-9.123 0-16.99 8.811-16.99 8.811v41.531l15.732 3.933v12.586h-51.916v-12.586l12.586-3.933v-51.128l-12.586-3.933v-12.585l33.037-0.786 1.416 10.854z"/>
</g>
</svg>
