<?xml version="1.0" encoding="UTF-8"?>
<!DOCTYPE svg  PUBLIC '-//W3C//DTD SVG 1.1//EN'  'http://www.w3.org/Graphics/SVG/1.1/DTD/svg11.dtd'>
<svg width="218.27px" height="52px" enable-background="new -29.134 0 218.268 52" version="1.1" viewBox="-29.134 0 218.268 52" xml:space="preserve" xmlns="http://www.w3.org/2000/svg">
<g fill="#fff">
  <path d="m-12.341 18.511c1.098-0.841 4.329-3.424 9.238-3.424 8.657 0 13.244 6.266 13.244 17.119 0 12.146-6.331 19.188-18.735 19.188-7.107 0-13.438-1.423-13.438-1.423v-42.444l-4.846-1.291v-5.169l14.536-0.518 1e-3 17.962zm0 24.612s1.486 0.518 4.781 0.518c5.621 0 7.688-4.265 7.688-10.788 0-6.461-1.81-10.014-6.331-10.014-3.876 0-6.138 2.906-6.138 2.906v17.378z"/>
  <path d="m35.853 46.42s-4.973 4.846-10.465 4.846c-6.266 0-10.077-3.685-10.077-10.145 0-7.621 5.749-10.659 15.569-10.659h4.521v-3.553c0-3.295-1.744-4.717-4.974-4.717-3.295 0-5.685 0.97-5.685 0.97l-0.969 4.07h-5.814l-0.453-9.563s7.817-2.583 14.019-2.583c9.819 0 13.566 3.424 13.566 12.79v15.957l4.846 1.163v5.167l-12.92 0.455-1.164-4.198zm-4.134-10.468c-5.04 0-7.042 1.291-7.042 4.2 0 2.454 1.357 3.877 3.812 3.877 3.424 0 6.912-3.749 6.912-3.749v-4.328h-3.682z"/>
  <path d="m65.894 43.511h9.433l1.098-5.491h5.815v12.6h-28.104v-5.945l16.41-21.835h-8.852l-0.968 4.716h-5.814v-11.825h27.134v6.008l-16.152 21.772z"/>
  <path d="M98.517,43.511h9.434l1.098-5.491h5.814v12.6H86.76v-5.945l16.41-21.835h-8.852l-0.969,4.716h-5.813V15.731   h27.132v6.008L98.517,43.511z"/>
  <path d="m139.93 46.42s-4.976 4.846-10.466 4.846c-6.266 0-10.079-3.685-10.079-10.145 0-7.621 5.75-10.659 15.569-10.659h4.523v-3.553c0-3.295-1.746-4.717-4.975-4.717-3.295 0-5.685 0.97-5.685 0.97l-0.969 4.07h-5.814l-0.453-9.563s7.816-2.583 14.02-2.583c9.819 0 13.567 3.424 13.567 12.79v15.957l4.844 1.163v5.167l-12.92 0.455-1.162-4.198zm-4.132-10.468c-5.042 0-7.047 1.291-7.047 4.2 0 2.454 1.356 3.877 3.813 3.877 3.425 0 6.913-3.749 6.913-3.749v-4.328h-3.679z"/>
  <path d="m172.04 20.189s4.652-5.103 8.98-5.103c3.552 0 6.01 1.162 6.01 1.162l-0.519 12.404h-5.813l-0.969-5.492c-3.747 0-6.977 3.618-6.977 3.618v17.054l6.459 1.614v5.172h-21.319v-5.172l5.17-1.614v-20.993l-5.17-1.615v-5.169l13.566-0.323 0.582 4.457z"/>
</g>
</svg>
