<?xml version="1.0" standalone="no"?>
<!DOCTYPE svg PUBLIC "-//W3C//DTD SVG 20010904//EN"
 "http://www.w3.org/TR/2001/REC-SVG-20010904/DTD/svg10.dtd">
<svg version="1.0" xmlns="http://www.w3.org/2000/svg"
 width="800.000000pt" height="800.000000pt" viewBox="0 0 800.000000 800.000000"
 preserveAspectRatio="xMidYMid meet">
<metadata>
Created by potrace 1.11, written by Peter Selinger 2001-2013
</metadata>
<g transform="translate(0.000000,800.000000) scale(0.100000,-0.100000)"
fill="#000000" stroke="none">
<path d="M0 4000 l0 -4000 4000 0 4000 0 0 4000 0 4000 -4000 0 -4000 0 0
-4000z m3578 1798 c1 -522 5 -948 9 -948 3 0 46 27 95 61 376 257 836 340
1273 229 441 -112 756 -425 916 -911 45 -138 92 -361 111 -529 19 -172 16
-614 -6 -770 -68 -497 -217 -845 -486 -1133 -360 -385 -941 -579 -1660 -552
-444 16 -941 73 -1277 145 l-53 12 0 2282 0 2283 -177 47 c-98 26 -214 58
-258 70 l-80 22 0 294 0 295 705 26 c388 15 746 26 795 25 l90 -1 3 -947z"/>
<path d="M4035 4291 c-150 -39 -279 -110 -396 -218 l-59 -55 0 -924 0 -923 38
-10 c130 -35 479 -53 612 -32 376 59 587 343 641 857 16 156 7 558 -15 679
-26 140 -54 233 -96 320 -74 152 -166 240 -306 292 -60 23 -88 27 -209 29
-111 3 -155 0 -210 -15z"/>
</g>
</svg>
